<svg width="3336" height="585" viewBox="0 0 3336 585" fill="none" xmlns="http://www.w3.org/2000/svg">
<path fill-rule="evenodd" clip-rule="evenodd" d="M467.626 253.782C482.323 233.186 491.05 207.935 491.05 180.473C491.05 111.12 435.59 54.9164 367.154 54.9164H350.16V41.3019C350.16 23.9637 336.266 10 319.272 10C302.163 10 288.384 24.08 288.384 41.3019V54.9164H256.923V55.0328H237.058C220.523 55.0328 207.204 68.6473 207.204 85.2873C207.204 102.044 220.638 115.542 237.058 115.542H256.923V115.658H366.695C401.027 115.658 428.815 143.818 428.815 178.611V178.727C428.815 212.589 402.405 240.866 369.221 241.564C363.135 241.68 344.763 241.564 344.763 241.564H344.304H344.074C325.817 242.029 311.235 257.971 313.187 277.055C314.909 293.695 329.607 305.913 346.141 305.913H408.835C415.266 305.913 421.811 306.378 428.011 308.008C461.655 316.968 486.572 347.92 486.572 384.924C486.572 428.793 451.435 464.4 408.147 464.4H218.916H183.32C166.556 464.4 151.628 476.851 150.021 493.724C148.184 513.041 163.226 529.331 181.942 529.331H288.384V543.295C288.384 560.633 302.278 574.597 319.272 574.597C336.381 574.597 350.16 560.517 350.16 543.295V529.331H377.029H377.144H410.902C489.327 529.331 552.825 464.866 552.825 385.506C552.94 326.626 517.804 275.891 467.626 253.782ZM756.74 202.299C756.74 202.415 756.854 202.415 756.969 202.415C771.457 204.626 782.496 217.078 782.611 232.438C782.611 249.195 769.158 262.81 752.6 262.81H737.882C737.882 262.81 730.524 262.577 723.28 263.508C708.677 265.836 695.799 273.749 684.186 287.48C670.043 304.237 662.914 326.347 662.914 353.112V466.919V495.313V497.175C662.914 513.932 649.461 527.547 632.904 527.547C620.486 527.547 609.792 519.866 605.193 508.928C603.583 505.204 602.778 501.247 602.778 497.058V233.02C602.778 216.38 616.116 202.765 632.674 202.765C649.001 202.765 662.109 215.914 662.569 232.322C666.938 227.551 671.768 223.129 677.057 219.056C689.245 209.747 706.722 204.277 722.705 202.532V202.415C731.214 201.368 747.426 201.368 754.44 201.95H755.015C755.245 202.066 755.59 202.066 755.82 202.066C755.892 202.091 755.959 202.115 756.023 202.138C756.266 202.226 756.467 202.299 756.74 202.299ZM1542.5 464.621H1434C1429.89 464.621 1427.49 460.101 1429.55 456.625L1555.98 251.275C1556.69 250.197 1557.2 249.05 1557.71 247.888L1557.72 247.858C1557.79 247.69 1557.87 247.521 1557.94 247.352C1558.01 247.192 1558.08 247.031 1558.16 246.871C1558.16 246.813 1558.19 246.755 1558.21 246.697C1558.24 246.639 1558.27 246.581 1558.27 246.523C1558.73 245.364 1559.07 244.206 1559.3 243.047C1559.31 242.997 1559.33 242.948 1559.34 242.898C1559.36 242.803 1559.39 242.707 1559.41 242.611C1559.44 242.535 1559.46 242.458 1559.48 242.382L1559.52 242.239L1559.55 242.12C1559.73 241.501 1559.91 240.883 1559.99 240.265C1560.1 239.918 1560.1 239.454 1560.1 239.107C1560.33 237.716 1560.56 236.325 1560.56 234.819C1560.56 218.363 1547.3 204.92 1531.06 204.92H1375.02C1359.58 204.92 1345.86 216.393 1344.38 231.922C1342.66 249.768 1356.5 264.717 1373.76 264.717H1468.64C1472.76 264.717 1475.16 269.237 1473.1 272.714L1347.46 476.673C1346.93 477.6 1346.5 478.527 1346.07 479.454C1345.85 479.918 1345.63 480.381 1345.41 480.845C1343.35 484.901 1342.09 489.42 1342.09 494.288C1342.09 510.743 1355.24 524.186 1371.59 524.186H1542.38C1558.61 524.186 1571.88 510.743 1571.88 494.288C1571.99 478.064 1558.73 464.621 1542.5 464.621ZM336.361 384.718C336.361 367.147 322.207 352.791 304.63 352.791H105.003C87.5401 352.791 73.2729 367.032 73.2729 384.718C73.2729 402.289 87.426 416.645 105.003 416.645H304.63C322.093 416.53 336.361 402.289 336.361 384.718ZM184.567 241.889C202.242 241.889 216.474 256.244 216.474 273.815C216.474 291.386 202.242 305.742 184.567 305.742H41.9065C24.2317 305.742 10 291.386 10 273.815C10 256.129 24.3464 241.889 41.9065 241.889H184.567ZM155.135 211.641H297.795C315.355 211.641 329.702 197.401 329.702 179.715C329.702 162.144 315.47 147.788 297.795 147.788H155.135C137.574 147.788 123.228 162.029 123.228 179.715C123.228 197.286 137.46 211.641 155.135 211.641ZM1038.45 312.386C1035.68 282.91 1024.04 257.727 1003.64 237.186C980.126 213.512 951.771 201.559 919.612 201.559C885.723 201.559 856.331 214.441 832.24 239.855C808.149 265.154 795.931 295.559 795.931 330.374V398.843C795.931 438.068 808.956 470.33 834.545 494.468C860.019 518.606 893.216 530.907 933.328 530.907C960.762 530.907 984.161 525.453 1002.83 514.544C1015.63 507.117 1023.93 500.154 1028.42 492.959C1029.11 491.915 1029.81 490.87 1030.38 489.71C1030.46 489.467 1030.6 489.224 1030.71 489.021L1030.71 489.019C1030.73 488.985 1030.75 488.952 1030.77 488.92C1030.8 488.87 1030.82 488.824 1030.84 488.781C1031.3 487.969 1031.65 487.041 1031.88 486.112C1031.89 486.07 1031.91 486.029 1031.92 485.99C1031.94 485.955 1031.95 485.92 1031.96 485.887C1031.98 485.841 1032 485.797 1032.01 485.753L1032.05 485.65L1032.05 485.648L1032.09 485.545L1032.12 485.483L1032.14 485.423C1032.17 485.348 1032.2 485.269 1032.23 485.184C1032.57 484.023 1032.92 482.747 1033.15 481.47C1033.15 481.238 1033.15 481.122 1033.26 480.89C1033.38 479.846 1033.49 478.685 1033.49 477.641V477.06V476.596C1033.49 475.088 1033.38 473.463 1033.03 471.954C1032.92 471.374 1032.8 470.91 1032.57 470.33C1032.46 469.865 1032.34 469.401 1032.23 468.821C1032.11 468.589 1032 468.357 1032 468.125C1028.31 457.1 1018.05 449.209 1005.95 449.209H1005.83H1005.48C1004.22 449.209 1002.95 449.325 1001.8 449.557C1001.71 449.557 1001.62 449.572 1001.52 449.591C1001.48 449.598 1001.43 449.606 1001.39 449.615L1001.39 449.615C1001.25 449.644 1001.1 449.673 1000.99 449.673C999.722 449.905 998.569 450.253 997.416 450.717L997.416 450.717C997.185 450.833 996.955 450.949 996.725 450.949L993.613 452.342C993.555 452.4 993.468 452.429 993.382 452.458C993.296 452.487 993.209 452.516 993.151 452.574C992.114 453.154 990.961 453.851 989.924 454.547C989.894 454.562 989.864 454.579 989.834 454.597C989.801 454.618 989.768 454.64 989.735 454.663C989.698 454.689 989.661 454.716 989.624 454.744L989.578 454.779C989.463 454.866 989.348 454.953 989.232 455.011C988.715 455.359 988.225 455.706 987.736 456.054L987.734 456.055L987.726 456.061C987.539 456.194 987.353 456.326 987.165 456.459C986.862 456.672 986.554 456.886 986.235 457.1C977.475 463.831 964.911 469.517 953.961 472.07C947.852 473.231 941.166 473.927 934.942 473.927C911.543 473.927 892.294 467.196 877.655 453.851C863.016 440.505 855.985 422.981 855.985 400.468V391.764C855.985 388.863 858.29 386.542 861.172 386.542H1002.6C1022.31 386.542 1038.34 370.411 1038.34 350.567C1038.34 350.567 1039.83 326.08 1038.45 312.618V312.386ZM981.278 323.644C981.278 330.026 976.091 335.133 969.752 335.133L867.626 335.017C861.286 335.017 856.099 329.794 856.099 323.412V320.51C856.099 301.826 862.208 286.508 874.772 273.742C887.336 260.977 901.745 254.826 919.035 254.826C936.555 254.826 950.963 261.441 963.066 275.135C975.285 289.061 981.278 301.13 981.278 319.582V323.644ZM1283.38 237.186C1303.79 257.727 1315.43 282.91 1318.19 312.386V312.618C1319.58 326.08 1318.08 350.567 1318.08 350.567C1318.08 370.411 1302.06 386.542 1282.35 386.542H1140.91C1138.03 386.542 1135.73 388.863 1135.73 391.764V400.468C1135.73 422.981 1142.76 440.505 1157.4 453.851C1172.04 467.196 1191.29 473.927 1214.68 473.927C1220.91 473.927 1227.59 473.231 1233.7 472.07C1244.65 469.517 1257.22 463.831 1265.98 457.1C1266.49 456.754 1266.98 456.409 1267.47 456.063L1267.47 456.061L1267.48 456.055C1267.97 455.707 1268.46 455.359 1268.98 455.011C1269.03 454.981 1269.09 454.944 1269.15 454.903C1269.21 454.864 1269.26 454.822 1269.32 454.78L1269.32 454.779C1269.44 454.692 1269.55 454.605 1269.67 454.547C1270.7 453.851 1271.86 453.154 1272.89 452.574C1272.95 452.516 1273.04 452.487 1273.12 452.458C1273.21 452.429 1273.3 452.4 1273.36 452.342L1276.47 450.949C1276.7 450.949 1276.93 450.833 1277.16 450.717C1278.31 450.253 1279.46 449.905 1280.73 449.673C1280.85 449.673 1280.99 449.644 1281.13 449.615L1281.14 449.615C1281.28 449.586 1281.42 449.557 1281.54 449.557C1282.69 449.325 1283.96 449.209 1285.23 449.209H1285.57H1285.69C1297.79 449.209 1308.05 457.1 1311.74 468.125C1311.74 468.357 1311.85 468.589 1311.97 468.821C1312.08 469.398 1312.2 469.861 1312.31 470.323L1312.32 470.33C1312.55 470.91 1312.66 471.374 1312.78 471.954C1313.12 473.463 1313.24 475.088 1313.24 476.596V477.06V477.641C1313.24 478.685 1313.12 479.846 1313.01 480.89C1312.89 481.122 1312.89 481.238 1312.89 481.47C1312.66 482.747 1312.32 484.023 1311.97 485.184C1311.94 485.267 1311.91 485.344 1311.89 485.417C1311.86 485.497 1311.83 485.573 1311.8 485.648C1311.74 485.793 1311.68 485.938 1311.62 486.112C1311.39 487.041 1311.05 487.969 1310.59 488.781C1310.55 488.852 1310.51 488.933 1310.46 489.021C1310.34 489.224 1310.21 489.467 1310.13 489.71C1309.55 490.869 1308.86 491.913 1308.17 492.957L1308.17 492.958L1308.17 492.959C1303.67 500.154 1295.37 507.117 1282.58 514.544C1263.9 525.453 1240.5 530.907 1213.07 530.907C1172.96 530.907 1139.76 518.606 1114.29 494.468C1088.7 470.33 1075.67 438.068 1075.67 398.843V330.374C1075.67 295.559 1087.89 265.154 1111.98 239.855C1136.07 214.441 1165.47 201.559 1199.35 201.559C1231.51 201.559 1259.87 213.512 1283.38 237.186ZM1249.49 335.133C1255.83 335.133 1261.02 330.026 1261.02 323.644V319.582C1261.02 301.13 1255.03 289.061 1242.81 275.135C1230.71 261.441 1216.3 254.826 1198.78 254.826C1181.49 254.826 1167.08 260.977 1154.51 273.742C1141.95 286.508 1135.84 301.826 1135.84 320.51V323.412C1135.84 329.794 1141.03 335.017 1147.37 335.017L1249.49 335.133ZM2190.14 243.035H2112.62C2110.41 230.321 2106.33 219.059 2100.39 209.248C2094.45 199.298 2087.05 190.869 2078.21 183.96C2069.37 177.05 2059.28 171.868 2047.95 168.414C2036.75 164.821 2024.66 163.024 2011.67 163.024C1988.6 163.024 1968.14 168.828 1950.32 180.436C1932.49 191.905 1918.53 208.764 1908.45 231.012C1898.36 253.122 1893.32 280.138 1893.32 312.059C1893.32 344.533 1898.36 371.894 1908.45 394.142C1918.67 416.252 1932.63 432.972 1950.32 444.304C1968.14 455.497 1988.53 461.093 2011.47 461.093C2024.18 461.093 2036.06 459.435 2047.12 456.119C2058.31 452.664 2068.33 447.62 2077.17 440.987C2086.16 434.354 2093.69 426.201 2099.77 416.528C2105.99 406.855 2110.27 395.8 2112.62 383.363L2190.14 383.778C2187.24 403.953 2180.95 422.885 2171.28 440.573C2161.74 458.261 2149.24 473.876 2133.76 487.418C2118.28 500.822 2100.18 511.324 2079.45 518.925C2058.73 526.387 2035.72 530.118 2010.43 530.118C1973.12 530.118 1939.82 521.481 1910.52 504.208C1881.22 486.934 1858.15 461.992 1841.29 429.38C1824.43 396.767 1816 357.661 1816 312.059C1816 266.319 1824.5 227.212 1841.5 194.738C1858.49 162.126 1881.64 137.183 1910.93 119.91C1940.23 102.637 1973.39 94 2010.43 94C2034.06 94 2056.03 97.3165 2076.34 103.949C2096.66 110.582 2114.76 120.325 2130.65 133.176C2146.54 145.889 2159.6 161.504 2169.83 180.021C2180.19 198.4 2186.96 219.405 2190.14 243.035ZM2311.85 524.314H2236.82V99.8039H2311.85V524.314ZM2426.62 510.012C2449.42 523.692 2476.37 530.532 2507.46 530.532C2538.55 530.532 2565.5 523.692 2588.3 510.012C2611.1 496.331 2628.72 477.192 2641.16 452.595C2653.73 427.998 2660.02 399.255 2660.02 366.366C2660.02 333.478 2653.73 304.666 2641.16 279.93C2628.72 255.195 2611.1 235.987 2588.3 222.307C2565.5 208.626 2538.55 201.786 2507.46 201.786C2476.37 201.786 2449.42 208.626 2426.62 222.307C2403.82 235.987 2386.13 255.195 2373.56 279.93C2361.12 304.666 2354.9 333.478 2354.9 366.366C2354.9 399.255 2361.12 427.998 2373.56 452.595C2386.13 477.192 2403.82 496.331 2426.62 510.012ZM2550.16 456.533C2538.83 465.792 2524.74 470.421 2507.88 470.421C2490.6 470.421 2476.23 465.792 2464.76 456.533C2453.43 447.137 2444.93 434.562 2439.27 418.808C2433.74 403.055 2430.98 385.505 2430.98 366.159C2430.98 346.675 2433.74 329.056 2439.27 313.303C2444.93 297.411 2453.43 284.767 2464.76 275.37C2476.23 265.974 2490.6 261.275 2507.88 261.275C2524.74 261.275 2538.83 265.974 2550.16 275.37C2561.49 284.767 2569.92 297.411 2575.45 313.303C2581.12 329.056 2583.95 346.675 2583.95 366.159C2583.95 385.505 2581.12 403.055 2575.45 418.808C2569.92 434.562 2561.49 447.137 2550.16 456.533ZM2906.21 390.411V205.931H2981.24V524.314H2908.49V467.726H2905.17C2897.98 485.553 2886.17 500.131 2869.72 511.463C2853.42 522.794 2833.31 528.46 2809.41 528.46C2788.54 528.46 2770.09 523.83 2754.06 514.572C2738.17 505.175 2725.73 491.564 2716.75 473.738C2707.77 455.773 2703.28 434.078 2703.28 408.652V205.931H2778.31V397.044C2778.31 417.219 2783.84 433.249 2794.9 445.133C2805.95 457.017 2820.46 462.959 2838.42 462.959C2849.48 462.959 2860.19 460.264 2870.55 454.875C2880.92 449.486 2889.42 441.471 2896.05 430.831C2902.82 420.052 2906.21 406.579 2906.21 390.411ZM3088.96 510.633C3108.72 523.485 3131.11 529.911 3156.12 529.911C3174.36 529.911 3189.49 526.87 3201.52 520.79C3213.54 514.71 3223.21 507.386 3230.53 498.818C3237.86 490.113 3243.46 481.891 3247.32 474.152H3251.88V524.314H3325.68V99.8039H3250.43V258.581H3247.32C3243.46 250.842 3238 242.62 3230.95 233.914C3223.9 225.07 3214.37 217.539 3202.34 211.321C3190.32 204.964 3174.98 201.786 3156.33 201.786C3131.87 201.786 3109.69 208.073 3089.79 220.648C3069.89 233.085 3054.07 251.533 3042.32 275.992C3030.72 300.313 3024.91 330.161 3024.91 365.537C3024.91 400.499 3030.65 430.209 3042.12 454.668C3053.59 479.127 3069.2 497.782 3088.96 510.633ZM3217.68 455.497C3206.49 464.064 3192.95 468.348 3177.06 468.348C3160.61 468.348 3146.72 463.926 3135.39 455.082C3124.2 446.1 3115.7 433.871 3109.9 418.394C3104.23 402.779 3101.4 385.022 3101.4 365.123C3101.4 345.362 3104.23 327.812 3109.9 312.473C3115.56 297.135 3123.99 285.112 3135.19 276.407C3146.38 267.701 3160.34 263.348 3177.06 263.348C3193.22 263.348 3206.84 267.563 3217.89 275.992C3229.08 284.422 3237.51 296.237 3243.18 311.437C3248.98 326.638 3251.88 344.533 3251.88 365.123C3251.88 385.712 3248.98 403.746 3243.18 419.223C3237.38 434.7 3228.88 446.791 3217.68 455.497Z" fill="url(#paint0_linear_3054_9978)"/>
<defs>
<linearGradient id="paint0_linear_3054_9978" x1="10" y1="10" x2="3325.68" y2="10" gradientUnits="userSpaceOnUse">
<stop stop-color="#009CF9"/>
<stop offset="0.534375" stop-color="#0089FC"/>
<stop offset="1" stop-color="#0078FD"/>
</linearGradient>
</defs>
</svg>
