<svg width="1686" height="663" viewBox="0 0 1686 663" fill="none" xmlns="http://www.w3.org/2000/svg">
<path fill-rule="evenodd" clip-rule="evenodd" d="M1666.3 246.936C1641.02 202.183 1593 174.525 1528.74 173.842C1527.27 88.8664 1472.21 26.0805 1402.07 6.47187C1331.07 -13.3761 1249.46 11.7912 1195.5 90.7969C1167 71.2491 1130.44 66.2896 1097.73 73.1732C1059.23 81.2786 1022.31 106.209 1002.7 147.215C977.498 141.448 953.45 145.045 933.312 153.59C906.41 165.007 884.118 186.311 875.146 208.743C868.993 224.126 876.475 241.585 891.859 247.739C907.243 253.892 924.702 246.409 930.855 231.025C932.801 226.16 941.628 215.24 956.751 208.823C970.32 203.064 986.991 201.813 1005.23 211.932C1023.41 222.016 1046.14 211.705 1050.59 191.467C1058.12 157.264 1082.99 137.592 1110.09 131.887C1138.35 125.938 1163.53 135.771 1174.94 154.412C1188.28 176.204 1219 172.824 1229.28 151.849C1269.8 69.2153 1335.86 50.2642 1385.91 64.2565C1436.97 78.5307 1477.77 128.165 1467.04 200.107C1463.99 220.493 1481.32 238.069 1501.67 235.464C1564.96 227.36 1599.04 249.871 1614.05 276.445C1630.1 304.85 1629.44 346.418 1605.94 384.684C1597.26 398.803 1601.68 417.277 1615.8 425.948C1629.92 434.619 1648.39 430.202 1657.06 416.084C1689.89 362.635 1694.9 297.582 1666.3 246.936ZM457.626 341.52C472.323 320.924 481.05 295.673 481.05 268.211C481.05 198.858 425.59 142.655 357.154 142.655H340.16V129.04C340.16 111.702 326.266 97.7383 309.272 97.7383C292.163 97.7383 278.384 111.818 278.384 129.04V142.655H246.923V142.771H227.058C210.523 142.771 197.204 156.386 197.204 173.026C197.204 189.782 210.638 203.28 227.058 203.28H246.923V203.397H356.695C391.027 203.397 418.815 231.557 418.815 266.349V266.466C418.815 300.328 392.405 328.604 359.221 329.302C353.135 329.419 334.763 329.302 334.763 329.302H334.304H334.074C315.817 329.768 301.235 345.71 303.187 364.793C304.909 381.433 319.607 393.651 336.141 393.651H398.835C405.266 393.651 411.811 394.117 418.011 395.746C451.655 404.706 476.572 435.659 476.572 472.662C476.572 516.531 441.435 552.139 398.147 552.139H208.916H173.32C156.556 552.139 141.628 564.59 140.021 581.462C138.184 600.779 153.226 617.07 171.942 617.07H278.384V631.033C278.384 648.372 292.278 662.335 309.272 662.335C326.381 662.335 340.16 648.255 340.16 631.033V617.07H367.029H367.144H400.902C479.327 617.07 542.825 552.604 542.825 473.244C542.94 414.364 507.804 363.63 457.626 341.52ZM746.74 290.037C746.74 290.154 746.854 290.154 746.969 290.154C761.457 292.365 772.496 304.816 772.611 320.177C772.611 336.934 759.158 350.549 742.6 350.549H727.882C727.882 350.549 720.524 350.316 713.28 351.247C698.677 353.574 685.799 361.487 674.186 375.219C660.043 391.975 652.914 414.085 652.914 440.85V554.657V583.051V584.913C652.914 601.67 639.461 615.285 622.904 615.285C610.486 615.285 599.792 607.605 595.193 596.666C593.583 592.942 592.778 588.986 592.778 584.797V320.758C592.778 304.118 606.116 290.503 622.674 290.503C639.001 290.503 652.109 303.652 652.569 320.06C656.938 315.289 661.768 310.867 667.057 306.794C679.245 297.485 696.722 292.016 712.705 290.27V290.154C721.214 289.106 737.426 289.106 744.44 289.688H745.015C745.245 289.805 745.59 289.805 745.82 289.805C745.892 289.829 745.959 289.853 746.023 289.876C746.266 289.965 746.467 290.037 746.74 290.037ZM1532.5 552.359H1424C1419.89 552.359 1417.49 547.84 1419.55 544.363L1545.98 339.013C1546.69 337.936 1547.2 336.789 1547.71 335.626L1547.72 335.597C1547.79 335.428 1547.87 335.26 1547.94 335.091C1548.01 334.93 1548.08 334.77 1548.16 334.609C1548.16 334.551 1548.19 334.493 1548.21 334.435C1548.24 334.377 1548.27 334.32 1548.27 334.262C1548.73 333.103 1549.07 331.944 1549.3 330.785C1549.31 330.736 1549.33 330.686 1549.34 330.637C1549.36 330.541 1549.39 330.445 1549.41 330.35L1549.44 330.246L1549.48 330.12L1549.52 329.977L1549.55 329.858C1549.73 329.24 1549.91 328.622 1549.99 328.004C1550.1 327.656 1550.1 327.193 1550.1 326.845C1550.33 325.454 1550.56 324.064 1550.56 322.557C1550.56 306.101 1537.3 292.658 1521.06 292.658H1365.02C1349.58 292.658 1335.86 304.131 1334.38 319.66C1332.66 337.506 1346.5 352.456 1363.76 352.456H1458.64C1462.76 352.456 1465.16 356.975 1463.1 360.452L1337.46 564.411C1336.93 565.338 1336.5 566.265 1336.07 567.193C1335.85 567.656 1335.63 568.12 1335.41 568.583C1333.35 572.639 1332.09 577.159 1332.09 582.026C1332.09 598.482 1345.24 611.925 1361.59 611.925H1532.38C1548.61 611.925 1561.88 598.482 1561.88 582.026C1561.99 565.802 1548.73 552.359 1532.5 552.359ZM326.361 472.456C326.361 454.885 312.207 440.53 294.63 440.53H95.0032C77.5401 440.53 63.2729 454.77 63.2729 472.456C63.2729 490.027 77.426 504.383 95.0032 504.383H294.63C312.093 504.268 326.361 490.027 326.361 472.456ZM174.567 329.627C192.242 329.627 206.474 343.982 206.474 361.554C206.474 379.125 192.242 393.48 174.567 393.48H31.9065C14.2317 393.48 0 379.125 0 361.554C0 343.868 14.3464 329.627 31.9065 329.627H174.567ZM145.135 299.38H287.795C305.355 299.38 319.702 285.139 319.702 267.453C319.702 249.882 305.47 235.527 287.795 235.527H145.135C127.574 235.527 113.228 249.767 113.228 267.453C113.228 285.024 127.46 299.38 145.135 299.38ZM1028.45 400.125C1025.68 370.648 1014.04 345.465 993.641 324.925C970.126 301.251 941.771 289.297 909.612 289.297C875.723 289.297 846.331 302.179 822.24 327.594C798.149 352.893 785.931 383.297 785.931 418.112V486.581C785.931 525.806 798.956 558.068 824.545 582.206C850.019 606.344 883.216 618.646 923.328 618.646C950.762 618.646 974.161 613.191 992.834 602.283C1005.63 594.856 1013.93 587.893 1018.42 580.698C1019.11 579.653 1019.81 578.609 1020.38 577.448C1020.44 577.274 1020.53 577.099 1020.61 576.94C1020.65 576.877 1020.68 576.817 1020.71 576.759L1020.71 576.758L1020.74 576.706L1020.77 576.658C1020.79 576.628 1020.8 576.599 1020.82 576.571C1020.83 576.554 1020.84 576.536 1020.84 576.52C1021.3 575.707 1021.65 574.779 1021.88 573.851C1021.91 573.77 1021.93 573.696 1021.96 573.625C1021.99 573.543 1022.02 573.465 1022.05 573.388L1022.05 573.386L1022.09 573.283L1022.11 573.242C1022.12 573.215 1022.13 573.188 1022.14 573.161C1022.17 573.086 1022.2 573.008 1022.23 572.922C1022.57 571.762 1022.92 570.485 1023.15 569.209C1023.15 568.977 1023.15 568.861 1023.26 568.628C1023.38 567.584 1023.49 566.423 1023.49 565.379V564.799V564.335C1023.49 562.826 1023.38 561.201 1023.03 559.693C1022.92 559.112 1022.8 558.648 1022.57 558.068C1022.46 557.604 1022.34 557.14 1022.23 556.559C1022.11 556.327 1022 556.095 1022 555.863C1018.31 544.838 1008.05 536.947 995.946 536.947H995.831H995.485C994.217 536.947 992.949 537.063 991.796 537.295C991.714 537.295 991.617 537.31 991.515 537.329C991.475 537.337 991.434 537.345 991.393 537.353L991.392 537.353C991.248 537.382 991.105 537.411 990.99 537.411C989.722 537.643 988.569 537.991 987.416 538.456L987.416 538.456C987.185 538.572 986.955 538.688 986.725 538.688L983.613 540.08C983.583 540.109 983.547 540.131 983.507 540.15C983.468 540.168 983.425 540.182 983.382 540.196C983.324 540.216 983.265 540.236 983.216 540.264C983.192 540.278 983.17 540.294 983.151 540.312C982.114 540.893 980.961 541.589 979.924 542.285C979.894 542.3 979.864 542.317 979.834 542.336C979.801 542.356 979.768 542.378 979.735 542.401C979.698 542.427 979.661 542.455 979.624 542.482L979.578 542.517C979.463 542.604 979.348 542.691 979.232 542.749C978.715 543.097 978.225 543.445 977.736 543.792L977.734 543.794L977.726 543.8C977.539 543.932 977.353 544.065 977.165 544.197C976.862 544.411 976.554 544.625 976.235 544.838C967.475 551.569 954.911 557.256 943.961 559.809C937.852 560.969 931.166 561.665 924.942 561.665C901.543 561.665 882.294 554.935 867.655 541.589C853.016 528.243 845.985 510.72 845.985 488.206V479.502C845.985 476.601 848.29 474.28 851.172 474.28H992.603C1012.31 474.28 1028.34 458.149 1028.34 438.305C1028.34 438.305 1029.83 413.818 1028.45 400.357V400.125ZM971.278 411.382C971.278 417.765 966.091 422.871 959.752 422.871L857.626 422.755C851.286 422.755 846.099 417.533 846.099 411.15V408.249C846.099 389.565 852.208 374.246 864.772 361.481C877.336 348.715 891.745 342.565 909.035 342.565C926.555 342.565 940.963 349.18 953.066 362.873C965.285 376.799 971.278 388.868 971.278 407.32V411.382ZM1273.38 324.925C1293.79 345.465 1305.43 370.648 1308.19 400.125V400.357C1309.58 413.818 1308.08 438.305 1308.08 438.305C1308.08 458.149 1292.06 474.28 1272.35 474.28H1130.91C1128.03 474.28 1125.73 476.601 1125.73 479.502V488.206C1125.73 510.72 1132.76 528.243 1147.4 541.589C1162.04 554.935 1181.29 561.665 1204.68 561.665C1210.91 561.665 1217.59 560.969 1223.7 559.809C1234.65 557.256 1247.22 551.569 1255.98 544.838C1256.49 544.492 1256.98 544.146 1257.47 543.8L1257.48 543.794C1257.97 543.446 1258.46 543.097 1258.98 542.749C1259.09 542.692 1259.2 542.605 1259.32 542.518L1259.32 542.517C1259.39 542.463 1259.46 542.409 1259.54 542.362C1259.58 542.333 1259.62 542.307 1259.67 542.285C1260.7 541.589 1261.86 540.893 1262.89 540.312C1262.95 540.254 1263.04 540.225 1263.12 540.196C1263.21 540.167 1263.3 540.138 1263.36 540.08L1266.47 538.688C1266.7 538.688 1266.93 538.572 1267.16 538.456C1268.31 537.991 1269.46 537.643 1270.73 537.411C1270.85 537.411 1270.99 537.382 1271.13 537.353L1271.14 537.353C1271.28 537.324 1271.42 537.295 1271.54 537.295C1272.69 537.063 1273.96 536.947 1275.23 536.947H1275.57H1275.69C1287.79 536.947 1298.05 544.838 1301.74 555.863C1301.74 556.095 1301.85 556.327 1301.97 556.559C1302.08 557.137 1302.2 557.599 1302.31 558.061L1302.32 558.068C1302.55 558.648 1302.66 559.112 1302.78 559.693C1303.12 561.201 1303.24 562.826 1303.24 564.335V564.799V565.379C1303.24 566.423 1303.12 567.584 1303.01 568.628C1302.94 568.764 1302.91 568.86 1302.9 568.963C1302.89 569.036 1302.89 569.112 1302.89 569.209C1302.66 570.485 1302.32 571.762 1301.97 572.922C1301.95 572.966 1301.94 573.008 1301.93 573.049C1301.88 573.169 1301.84 573.278 1301.8 573.386C1301.74 573.531 1301.68 573.677 1301.62 573.851C1301.39 574.779 1301.05 575.707 1300.59 576.52C1300.55 576.59 1300.51 576.671 1300.46 576.759C1300.34 576.963 1300.21 577.205 1300.13 577.448C1299.55 578.608 1298.86 579.652 1298.17 580.696L1298.17 580.698C1293.67 587.893 1285.37 594.856 1272.58 602.283C1253.9 613.191 1230.5 618.646 1203.07 618.646C1162.96 618.646 1129.76 606.344 1104.29 582.206C1078.7 558.068 1065.67 525.806 1065.67 486.581V418.112C1065.67 383.297 1077.89 352.893 1101.98 327.594C1126.07 302.179 1155.47 289.297 1189.35 289.297C1221.51 289.297 1249.87 301.251 1273.38 324.925ZM1239.49 422.871C1245.83 422.871 1251.02 417.765 1251.02 411.382V407.32C1251.02 388.868 1245.03 376.799 1232.81 362.873C1220.71 349.18 1206.3 342.565 1188.78 342.565C1171.49 342.565 1157.08 348.715 1144.51 361.481C1131.95 374.246 1125.84 389.565 1125.84 408.249V411.15C1125.84 417.533 1131.03 422.755 1137.37 422.755L1239.49 422.871Z" fill="white"/>
</svg>
